<?xml version="1.0" encoding="utf-8"?>
<!-- Generator: Adobe Illustrator 24.1.2, SVG Export Plug-In . SVG Version: 6.00 Build 0)  -->
<svg version="1.1" id="Ebene_1" xmlns="http://www.w3.org/2000/svg" xmlns:xlink="http://www.w3.org/1999/xlink" x="0px" y="0px"
	 viewBox="0 0 841.89 595.276" style="enable-background:new 0 0 841.89 595.276;" xml:space="preserve">
<style type="text/css">
	.st0{fill:#666766;}
	.st1{fill:url(#SVGID_1_);}
	.st2{fill:#FFFFFF;}
</style>
<path class="st0" d="M568.966,203.264l6.364,6.364l-11.78,11.78c37.3,40.637,36.268,104.051-3.104,143.422
	s-102.785,40.404-143.43,3.111l-11.703,11.703l-6.364-6.364l11.745-11.745c-3.684-4.009-7.05-8.308-10.055-12.827l7.502-4.971
	c3.486,5.254,7.538,10.197,12.028,14.687l-0.042,0.042c36.932,36.932,97.022,36.932,133.954,0
	c36.925-36.925,36.925-97.015-0.007-133.947l-2.058-2.058c-3.917-3.691-8.139-7.05-12.594-10.006l4.971-7.502
	c4.518,3.005,8.818,6.371,12.827,10.055L568.966,203.264z"/>
<linearGradient id="SVGID_1_" gradientUnits="userSpaceOnUse" x1="570.6302" y1="355.845" x2="414.7247" y2="355.845" gradientTransform="matrix(0.7071 -0.7071 0.7071 0.7071 -112.853 388.2125)">
	<stop  offset="0" style="stop-color:#98C21D"/>
	<stop  offset="1" style="stop-color:#018D38"/>
</linearGradient>
<circle class="st1" cx="487.143" cy="291.457" r="77.953"/>
<g>
	<path class="st2" d="M497.023,301.304l-0.01,0.02l0.02-0.01L497.023,301.304z M477.273,281.584l0.02-0.01l-0.01-0.01
		L477.273,281.584z"/>
	<path class="st2" d="M477.293,281.574l-0.02,0.01l-0.01,0.02l-24.31,44.05l44.04-24.32l0.02-0.01l0.01-0.02l24.31-44.04
		L477.293,281.574z M465.703,312.904l12.75-23.1l10.34,10.35L465.703,312.904z"/>
	<g>
		<path class="st2" d="M496.993,301.334l0.01,0.01l0.01-0.02L496.993,301.334z M477.263,281.604l0.01-0.02l-0.02,0.01
			L477.263,281.604z"/>
	</g>
</g>
<g>
	<path class="st0" d="M161.942,329.913h2.764l7.705,18.818l7.85-18.818h2.854l-0.029,20.817h-1.971l0.117-18.377l-7.85,18.377
		h-1.941l-7.732-18.377l0.146,18.377h-1.912V329.913z"/>
	<path class="st0" d="M198.34,348.554c-1.029,1.353-2.91,2.499-5.793,2.499c-3.91,0-5.439-1.793-5.439-4.822
		c0-3.852,2.588-5.027,6.645-5.027c2.146,0,3.617,0.146,4.412,0.265c-0.059-3.676-0.471-5.087-4.205-5.087
		c-3.822,0-4.439,1.999-4.439,3.381h-1.795c0-1.882,0.617-5.027,6.146-5.027c6.439,0,6.232,3.381,6.232,8.203v3.822l0.324,3.94
		h-1.793L198.34,348.554z M198.164,345.879v-2.764c-0.736-0.089-2.059-0.235-3.971-0.235c-3.322,0-5.086,0.794-5.086,3.264
		c0,1.794,0.852,3.205,3.793,3.205C196.252,349.348,198.164,347.319,198.164,345.879z"/>
	<path class="st0" d="M210.688,357.787c-6.559,0-6.146-5.527-6.146-5.527l2.059-0.029c0,0.059-0.234,3.91,4.088,3.91
		c4.498,0,4.732-2.528,4.732-5.439v-2c-0.734,1.059-2.205,2.294-5.32,2.294c-4.412,0-6.146-3.146-6.146-8.057
		c0-4.939,1.705-8.203,6.086-8.203c3.354,0,5.059,1.999,5.559,2.705l0.322-2.441h1.707l-0.295,3.97v11.791
		C217.332,354.112,217.156,357.787,210.688,357.787z M215.42,346.437v-7.175c-0.559-0.911-2.086-2.764-4.969-2.764
		c-3.146,0-4.557,2.411-4.557,6.439c0,3.999,1.41,6.263,4.557,6.263C213.364,349.201,214.774,347.643,215.42,346.437z"/>
	<path class="st0" d="M222.035,339.087l-0.295-4.088h1.676l0.354,2.676c0.676-1.088,2.381-2.91,5.852-2.91
		c3.498,0,5.176,1.764,5.176,6.674v9.292h-1.941v-9.351c0-3.146-0.912-4.793-3.881-4.793c-2.795,0-4.322,1.912-5,3.088v11.056
		h-1.939V339.087z"/>
	<path class="st0" d="M245.174,351.053c-5.176,0-6.852-3.087-6.852-8.145s1.676-8.233,6.852-8.233c4.939,0,6.762,2.676,6.762,8.557
		h-11.613c0.059,4.176,1.381,6.116,4.852,6.116c3.705,0,4.676-2.146,4.676-3.293h1.969
		C251.819,347.643,250.819,351.053,245.174,351.053z M240.352,341.498h9.527c-0.324-3.676-1.824-5.146-4.705-5.146
		C241.998,336.352,240.615,338.087,240.352,341.498z"/>
	<path class="st0" d="M260.932,350.789c-4.5,0-4.852-2.646-4.852-6.057v-7.998h-2v-1.735h2v-4.646l1.939-0.382v5.027h4.117v1.735
		h-4.117v7.938c0,2.617,0.324,4.293,3.029,4.293h1.176v1.823H260.932z"/>
	<path class="st0" d="M270.25,350.789c-4.498,0-4.852-2.646-4.852-6.057v-7.998h-1.998v-1.735h1.998v-4.646l1.941-0.382v5.027h4.117
		v1.735h-4.117v7.938c0,2.617,0.322,4.293,3.029,4.293h1.176v1.823H270.25z"/>
	<path class="st0" d="M280.158,351.053c-5.174,0-6.85-3.087-6.85-8.145s1.676-8.233,6.85-8.233c4.941,0,6.764,2.676,6.764,8.557
		h-11.615c0.059,4.176,1.383,6.116,4.852,6.116c3.705,0,4.676-2.146,4.676-3.293h1.971
		C286.805,347.643,285.805,351.053,280.158,351.053z M275.336,341.498h9.527c-0.322-3.676-1.822-5.146-4.705-5.146
		C276.983,336.352,275.602,338.087,275.336,341.498z"/>
	<path class="st0" d="M296.711,351.053c-5.205,0-6.793-3.087-6.793-8.145c0-4.999,1.588-8.233,6.793-8.233
		c4.498,0,6.41,2.205,6.469,5.939h-1.912c-0.029-2.881-1.646-4.263-4.557-4.263c-3.588,0-4.793,2.293-4.793,6.557
		c0,4.352,1.205,6.469,4.793,6.469c2.852,0,4.498-1.235,4.527-3.705h1.941C303.121,348.936,301.151,351.053,296.711,351.053z"/>
	<path class="st0" d="M307,328.619h1.939v8.791c0.766-1.088,2.471-2.646,5.676-2.646c3.498,0,5.176,1.764,5.176,6.645v9.321h-1.941
		v-9.409c0-3.087-0.912-4.734-3.881-4.734c-2.824,0-4.381,1.971-5.029,3.146v10.997H307V328.619z"/>
	<path class="st0" d="M324.198,339.087l-0.293-4.088h1.676l0.354,2.676c0.676-1.088,2.381-2.91,5.85-2.91
		c3.5,0,5.176,1.764,5.176,6.674v9.292h-1.941v-9.351c0-3.146-0.91-4.793-3.881-4.793c-2.793,0-4.322,1.912-4.998,3.088v11.056
		h-1.941V339.087z"/>
	<path class="st0" d="M341.28,328.53h1.971v3.323h-1.971V328.53z M341.28,334.999h1.941v15.731h-1.941V334.999z"/>
	<path class="st0" d="M348.041,328.619h1.883v15.113l7.291-8.733h2.236l-5.029,5.881l5.822,9.851h-2.205l-4.852-8.38l-3.264,3.822
		v4.558h-1.883V328.619z"/>
</g>
<g>
	<path class="st0" d="M162.242,249.283h7.906v25.781h30.078v-25.781h7.906v61.102h-7.906v-27.93h-30.078v27.93h-7.906V249.283z"/>
	<path class="st0" d="M251.701,304.798c-3.18,3.609-8.508,6.703-16.242,6.703c-11.516,0-16.414-5.156-16.414-14.352
		c0-11.602,7.734-15.211,19.422-15.211c5.844,0,10.055,0.43,12.547,0.773c-0.172-9.453-1.461-13.062-11.172-13.062
		c-10.055,0-11.773,5.156-11.773,8.852h-7.133c0-5.672,1.891-15.125,18.562-15.125c19.508,0,19.25,9.797,19.25,24.062v11
		l0.945,11.859h-7.047L251.701,304.798z M251.014,296.634V288.9c-2.234-0.258-5.672-0.602-10.484-0.602
		c-8.852,0-13.492,2.062-13.492,8.508c0,4.469,2.234,8.164,9.969,8.164C245.17,304.97,250.24,300.244,251.014,296.634z"/>
	<path class="st0" d="M301.891,304.798c-3.18,3.609-8.508,6.703-16.242,6.703c-11.516,0-16.414-5.156-16.414-14.352
		c0-11.602,7.734-15.211,19.422-15.211c5.844,0,10.055,0.43,12.547,0.773c-0.172-9.453-1.461-13.062-11.172-13.062
		c-10.055,0-11.773,5.156-11.773,8.852h-7.133c0-5.672,1.891-15.125,18.562-15.125c19.508,0,19.25,9.797,19.25,24.062v11
		l0.945,11.859h-7.047L301.891,304.798z M301.203,296.634V288.9c-2.234-0.258-5.672-0.602-10.484-0.602
		c-8.852,0-13.492,2.062-13.492,8.508c0,4.469,2.234,8.164,9.969,8.164C295.36,304.97,300.43,300.244,301.203,296.634z"/>
	<path class="st0" d="M338.071,311.502c-12.633-0.172-19.594-5.93-19.594-16.242h7.648c0,6.188,4.297,9.453,11.859,9.625
		c8.68,0.086,11.859-2.75,11.945-7.305c0.172-11.859-30.422-3.008-30.594-21.312c-0.086-8.164,6.016-13.32,18.906-13.148
		c12.547,0.086,18.305,5.672,18.305,15.211h-7.562c0-5.242-2.578-8.68-10.57-8.852c-8.938-0.086-11.258,3.438-11.258,7.133
		c0,10.914,30.594,2.406,30.594,21.398C357.75,306.431,352.078,311.588,338.071,311.502z"/>
</g>
</svg>
